<svg xmlns="http://www.w3.org/2000/svg" width="16" height="16" viewBox="0 0 16 16">
    <path fill="#C6C6C6" d="M12.278 0c1.558 0 2.833 1.31 2.833 2.91v10.18c0 1.6-1.275 2.91-2.833 2.91H2.833C1.275 16 0 14.69 0 13.09V2.91C0 1.31 1.275 0 2.833 0zm.944 8.97H1.89v4.12c0 .534.425.97.944.97h9.445c.52 0 .944-.436.944-.97V8.97zm-6.61 1.454v.485H8.5v-.485h1.889v.97c0 .8-.638 1.454-1.417 1.454H6.14c-.78 0-1.417-.654-1.417-1.454v-.97h1.89zm5.666-8.485H2.833c-.52 0-.944.437-.944.97V7.03h11.333V2.91c0-.534-.425-.97-.944-.97zM6.61 3.636v.485H8.5v-.485h1.889v.728c0 .945-.732 1.697-1.653 1.697H5.903c-.661 0-1.18-.534-1.18-1.213V3.636H6.61z"/>
</svg>
