<svg xmlns="http://www.w3.org/2000/svg" width="16" height="16" viewBox="0 0 16 16">
    <path fill="#B1B1B1" d="M13.143 12H6.857C5.28 12 4 10.72 4 9.141V2.858C4 1.279 5.28 0 6.857 0h6.286C14.72 0 16 1.28 16 2.858v6.284c0 1.578-1.28 2.857-2.857 2.857zm1.15-9.135c0-.631-.512-1.143-1.143-1.143H6.862c-.631 0-1.143.512-1.143 1.143v6.287c0 .631.512 1.143 1.143 1.143h6.288c.631 0 1.143-.512 1.143-1.143V2.865zm-1.719 4.004h-1.725v1.713c0 .312-.254.566-.566.566H9.71c-.312 0-.566-.254-.566-.566V6.869H7.42c-.313 0-.566-.254-.566-.566v-.585c0-.312.254-.566.566-.566h1.725V3.427c0-.313.254-.566.566-.566h.572c.312 0 .566.253.566.566v1.725h1.725c.313 0 .566.254.566.566v.585c0 .312-.253.566-.566.566zm-9.712 7.427h5.133c.624 0 1.13-.502 1.14-1.125h1.719C10.838 14.736 9.568 16 8 16H2.857C1.28 16 0 14.72 0 13.142v-5.14c0-1.578 1.278-2.857 2.856-2.858V6.88c-.628.004-1.136.514-1.136 1.143v5.13c0 .632.511 1.144 1.142 1.144z"/>
</svg>
