<svg xmlns="http://www.w3.org/2000/svg" width="16" height="16" viewBox="0 0 16 16">
    <path fill="#B1B1B1" d="M15.111 14.225H8.89L6.916 16h8.195c.489 0 .889-.4.889-.889s-.4-.886-.889-.886zM12.524 0c-.568 0-1.137.215-1.573.646L.578 11.03c-.33.33-.578.934-.578 1.396v2.685C0 15.6.4 16 .889 16h2.693c.471 0 1.058-.249 1.387-.578l9.653-9.646.73-.729c.861-.871.861-2.276 0-3.147L14.097.646C13.662.216 13.093 0 12.524 0zM1.778 14.222v-1.76c.009-.054.053-.16.053-.178l8.187-8.188 2 1.76-8.276 8.286c-.044.035-.142.071-.16.08H1.778z"/>
</svg>
