<svg xmlns="http://www.w3.org/2000/svg" width="16" height="12" viewBox="0 0 16 12">
    <path fill="#C6C6C6" d="M8 0c2.842 0 5.433 1.73 7.774 5.192.33.488.33 1.128 0 1.616l-.227.33C13.266 10.379 10.75 12 8 12 5.158 12 2.567 10.27.226 6.808c-.33-.488-.33-1.128 0-1.616l.227-.33C2.734 1.621 5.25 0 8 0zm0 1.714c-2.29 0-4.149 1.92-4.149 4.286 0 2.366 1.86 4.286 4.149 4.286 2.29 0 4.149-1.92 4.149-4.286 0-2.366-1.86-4.286-4.149-4.286zM8 3.43c.026 0 .049.006.075.006C8.03 3.57 8 3.71 8 3.857c0 .709.559 1.286 1.245 1.286.359 0 .679-.159.908-.412.209.378.336.807.336 1.269 0 1.417-1.117 2.571-2.489 2.571-1.372 0-2.49-1.154-2.49-2.571 0-1.417 1.118-2.571 2.49-2.571z"/>
</svg>
