<svg xmlns="http://www.w3.org/2000/svg" width="11" height="13" viewBox="0 0 11 13">
    <g fill="none" fill-rule="evenodd">
        <g fill="#C6C6C6" fill-rule="nonzero">
            <g>
                <g>
                    <g>
                        <g>
                            <path d="M24.135 9h-9.27c-.478 0-.865.39-.865.871v7.189c0 .057.006.114.017.171.005.025.014.047.02.071.01.03.017.062.029.092.011.027.027.053.042.079.012.024.023.048.038.07.03.047.066.09.105.13l.002.003 3.059 3.08c.04.04.085.077.132.11.02.013.042.022.063.034.028.015.056.033.086.045.028.012.056.018.084.027.026.007.05.017.078.023.055.01.11.016.166.017h6.213c.479 0 .866-.39.866-.872V9.871c0-.48-.387-.871-.865-.871zM17.8 18.784l-1.589-1.6h1.589v1.6zm5.469.485h-3.74v-2.956c0-.481-.386-.871-.864-.871H15.73v-4.7h7.54v8.527z" transform="translate(-1054 -452) translate(80 230) translate(0 85) translate(920) translate(40 128) rotate(180 19.5 15.006)"/>
                        </g>
                    </g>
                </g>
            </g>
        </g>
    </g>
</svg>
