<?xml version="1.0" encoding="UTF-8"?>
<svg width="97px" height="18px" viewBox="0 0 97 18" version="1.1" xmlns="http://www.w3.org/2000/svg" xmlns:xlink="http://www.w3.org/1999/xlink">
    <title>logo</title>
    <g id="pages" stroke="none" stroke-width="1" fill="none" fill-rule="evenodd">
        <g id="dashboard_forms_list" transform="translate(-30.000000, -31.000000)" fill="#2285FC" fill-rule="nonzero">
            <g id="topBar">
                <path d="M81.1757812,35.625 C85.0537109,35.625 87.5029297,37.9667969 87.5029297,41.9521484 C87.5029297,46.0341797 85.1074219,48.3007812 81.1757812,48.3007812 C77.2548828,48.3007812 74.8486328,46.0234375 74.8486328,41.9521484 C74.8486328,37.9882812 77.3193359,35.625 81.1757812,35.625 Z M120.951953,35.625 C124.443164,35.625 126.548633,37.1933594 126.548633,39.8144531 L122.552539,39.8144531 C122.541797,39.0195312 121.908008,38.5146484 120.919727,38.5146484 C120.092578,38.5146484 119.555469,38.8583984 119.555469,39.3740234 C119.555469,39.7607422 119.95293,40.0400391 120.747852,40.1904297 L123.444141,40.7275391 C125.839648,41.2001953 126.903125,42.2207031 126.903125,44.0576172 C126.903125,46.6679688 124.561328,48.3007812 121.048633,48.3007812 C117.310352,48.3007812 115.215625,46.6572266 115.065234,44.1005859 L119.319141,44.1005859 C119.41582,44.9169922 120.081836,45.4111328 121.102344,45.4111328 C122.004687,45.4111328 122.541797,45.0996094 122.541797,44.5839844 C122.541797,44.1865234 122.219531,43.9609375 121.381641,43.7998047 L119.061328,43.3378906 C116.633594,42.8544922 115.333789,41.5654297 115.333789,39.6640625 C115.333789,37.1611328 117.460742,35.625 120.951953,35.625 Z M57.8566406,35.625 C61.490842,35.625 63.8720959,37.9049537 63.9761347,41.4606773 L63.9796875,41.7050781 L63.9796875,42.8974609 L55.9552734,42.8974609 L55.9552734,43.1767578 C55.9552734,44.4013672 56.8253906,45.2714844 58.0607422,45.2714844 C58.9229818,45.2714844 59.6261415,44.8878212 59.9344089,44.2427679 L59.9943359,44.1005859 L63.9259766,44.1005859 C63.55,46.6894531 61.2833984,48.3007812 57.9962891,48.3007812 C54.0539063,48.3007812 51.7013672,45.9482422 51.7013672,42.0273438 C51.7013672,38.0849609 54.0753906,35.625 57.8566406,35.625 Z M72.9945312,31.5644531 C73.6927734,31.5644531 74.3373047,31.6181641 74.8529297,31.6933594 L74.8529297,31.6933594 L74.8529297,34.4970703 C74.6380859,34.4648438 74.4017578,34.4326172 73.9935547,34.4326172 C73.0804687,34.4326172 72.7044922,34.7011719 72.7044922,35.2705078 L72.7044922,35.2705078 L72.7044922,35.9257812 L74.8744141,35.9257812 L74.8744141,39.1269531 L72.8333984,39.1269531 L72.8333984,48 L68.4291016,48 L68.4291016,39.1269531 L66.8285156,39.1269531 L66.8285156,35.9257812 L68.4291016,35.9257812 L68.4291016,34.8945312 C68.4291016,32.4882812 69.6644531,31.5644531 72.9945312,31.5644531 Z M111.008984,35.6894531 C113.361523,35.6894531 114.983594,37.3759766 114.983594,39.8359375 L114.983594,39.8359375 L114.983594,48 L110.579297,48 L110.579297,40.9746094 C110.579297,39.8144531 110.074414,39.2236328 109.075391,39.2236328 C108.151562,39.2236328 107.592969,39.8896484 107.592969,40.9746094 L107.592969,40.9746094 L107.592969,48 L103.414258,48 L103.414258,40.9746094 C103.414258,39.8251953 102.898633,39.2236328 101.921094,39.2236328 C100.997266,39.2236328 100.42793,39.9003906 100.42793,40.9746094 L100.42793,40.9746094 L100.42793,48 L96.0236328,48 L96.0232656,39.6214531 L95.8546622,39.5575855 C95.5865054,39.4670727 95.2865198,39.4107756 94.9801685,39.3918774 L94.7496094,39.3847656 C93.0738281,39.3847656 92.2037109,40.2548828 92.2037109,41.9414062 L92.2037109,41.9414062 L92.2037109,48 L87.7994141,48 L87.7994141,35.9257812 L92.0962891,35.9257812 L92.0962891,38.2890625 L92.1822266,38.2890625 C92.6333984,36.5810547 93.5679687,35.7539062 95.0074219,35.7539062 C95.4048828,35.7539062 95.759375,35.8183594 96.0494141,35.9257812 L96.0494141,35.9257812 L100.320508,35.9257812 L100.320508,38.3535156 L100.406445,38.3535156 C100.857617,36.7314453 102.211133,35.6894531 103.854687,35.6894531 C105.691602,35.6894531 106.916211,36.6455078 107.216992,38.3320312 L107.216992,38.3320312 L107.30293,38.3320312 C107.711133,36.7421875 109.182812,35.6894531 111.008984,35.6894531 Z M36.3271484,33.2724609 L36.3271484,35.9257812 L38.4541016,35.9257812 L38.4541016,39.1269531 L36.3271484,39.1269531 L36.3271484,43.6708984 C36.3271484,44.4335938 36.7675781,44.8310547 37.6914062,44.8310547 C37.9578125,44.8310547 38.1210938,44.8241797 38.30775,44.7994297 L38.4541016,44.7773438 L38.4541016,47.8388672 C38.0351562,47.9248047 37.4658203,48 36.6279297,48 C33.3485786,48 31.9984282,47.0760144 31.9259502,44.8331775 L31.9228516,44.6376953 L31.9228516,39.1269531 L30.3222656,39.1269531 L30.3222656,35.9257812 L31.9228516,35.9257812 L31.9228516,33.2724609 L36.3271484,33.2724609 Z M43.2085938,31.6933594 L43.2085938,38.2890625 L43.2945313,38.2890625 C43.9068359,36.6025391 45.3355469,35.6894531 47.1724609,35.6894531 C49.8021484,35.6894531 51.3674386,37.2809805 51.4547371,40.0208986 L51.4585938,40.265625 L51.4585938,48 L47.0542969,48 L47.0542969,41.2431641 C47.0542969,40.0078125 46.3453125,39.2451172 45.1958984,39.2451172 C44.1523717,39.2451172 43.3914058,40.0051087 43.3212991,41.0796754 L43.3160156,41.2431641 L43.3160156,48 L38.9117188,48 L38.9117188,31.6933594 L43.2085938,31.6933594 Z M81.1757812,38.7832031 C80.0371094,38.7832031 79.3173828,39.9648438 79.3173828,41.9628906 C79.3173828,44.0146484 80.015625,45.1425781 81.1757812,45.1425781 C82.3251953,45.1425781 83.0341797,44.0146484 83.0341797,41.9628906 C83.0341797,39.9648438 82.3144531,38.7832031 81.1757812,38.7832031 Z M57.9425781,38.6650391 C56.9526855,38.6650391 56.1857739,39.3533716 56.0378768,40.3432131 L56.0197266,40.5019531 L59.8654297,40.5019531 C59.7902344,39.3847656 59.0275391,38.6650391 57.9425781,38.6650391 Z" id="logo"></path>
            </g>
        </g>
    </g>
</svg>